# xmcd CD database file
#
# Track frame offsets:
#	150
#	14020
#	26707
#	50760
#	66927
#	87095
#	110215
#	128335
#	150697
#
# Disc length: 2606 seconds
#
# Revision: 0
# Processed by: cddbd v1.5.2PL0 Copyright (c) Steve Scherf et al.
# Submitted via: CDex 1.50
#
DISCID=770a2c09
DTITLE=MUSCLE DOGGY GROOVES - S
DYEAR=1999
DGENRE=New Age
TTITLE0=TRUST IN GOD
TTITLE1=FLOWER
TTITLE2=DEEPER I'M SLEEPER
TTITLE3=FATE
TTITLE4=DON'T LET ME ALONE
TTITLE5=I'M YOUR MEDICINE
TTITLE6=STEP
TTITLE7=ONE AND ONLY
TTITLE8=BLUE(ORIGINAL VERSION)
EXTD=YEAR: 1999
EXTT0=
EXTT1=
EXTT2=
EXTT3=
EXTT4=
EXTT5=
EXTT6=
EXTT7=
EXTT8=
PLAYORDER=
